<svg width="124" height="24" viewBox="0 0 124 24" fill="none" xmlns="http://www.w3.org/2000/svg"><path d="M7.73933 21.6923C5.85263 16.8077 3.11884 9.57693 2.19474 7.23078C1.8867 6.46155 1.65568 5.84617 0.500554 5.65386C0.192521 5.57694 0 5.46155 0 5.07694C0 4.30771 0.731579 4.1154 2.57978 4.1154H8.85595C10.0881 4.1154 10.7427 4.30771 10.7427 5.03848C10.7427 5.46155 10.5501 5.50001 10.0496 5.6154C8.85595 5.80771 8.85595 6.19232 9.16399 7.11539L11.5897 14.4231C11.7053 14.7692 11.8208 15.1154 11.8978 15.5L15.5672 5.22694C15.806 4.55963 16.4374 4.1154 17.1459 4.1154H19.2848C19.9991 4.1154 20.6363 4.56732 20.8692 5.24232L24.3365 15.2692L26.6853 7.50001C27.0318 6.26924 26.9548 5.73078 25.1451 5.57693C24.4906 5.50001 24.2595 5.42309 24.2595 5.03848C24.2595 4.34617 24.9141 4.1154 26.4158 4.1154H29.4576C30.9593 4.1154 31.5368 4.42309 31.5368 5.03848C31.5368 5.38463 31.3828 5.46155 31.0748 5.50001C29.9967 5.6154 29.6501 6.15386 29.1496 7.57694L23.9842 22.9615C23.6762 23.8077 23.2219 24 22.5654 24C21.1407 24 20.8712 23.0385 20.4091 21.8077C19.1385 18.4615 16.9823 12.6923 15.9426 10.2692L11.3683 22.9615C11.1373 23.6154 10.6695 24 9.936 24C8.74237 24 8.47284 23.4615 7.74126 21.6923H7.73933Z" fill="#FF4D4D"/><path d="M52.0637 19.1923V6.42308H50.5236C49.8305 6.42308 49.2529 6.26923 49.2529 5.65385C49.2529 4.5 51.5632 4.92307 54.374 3.26923C57.4543 1.46154 57.4928 0 58.3784 0C58.879 0 58.9945 0.346155 58.9945 1.07692V4.11539L63.1529 4.07692C63.9615 4.07692 64.1925 4.15384 64.1925 4.80769C64.1925 6.15384 63.4995 6.42308 60.6887 6.42308H58.9945V19C58.9945 19.9615 59.6105 20.5384 60.9197 20.5384C61.6513 20.5384 62.4984 20.3461 63.384 20C63.769 19.8461 64.077 19.9231 64.154 20.1538C64.3081 20.4615 64.231 20.8846 63.3454 21.7307C62.0748 23 59.9186 24 58.1089 24C54.3355 24 52.0637 22.2308 52.0637 19.1923Z" fill="#FF4D4D"/><path d="M122.128 21.1538C121.474 21.1153 121.243 20.8461 121.243 20.1153L121.281 9.84613C121.32 5.69229 118.201 3.26921 113.927 3.26921C113.854 3.26921 113.784 3.27114 113.713 3.27306V3.26921C108.063 3.26921 104.416 5.7519 104.416 8.85959C104.416 10.5 105.465 11.5481 106.967 11.5481C108.75 11.5481 109.626 10.5654 109.972 7.98651C110.194 6.33844 110.771 5.51921 112.36 5.5096C113.827 5.61344 114.849 6.82498 114.849 8.84613V11.5C107.764 12.1154 104.183 14.7692 104.145 18.7307C104.183 21.923 106.34 24 109.381 24C112.423 24 114.156 22.3077 115.118 20.9615V21.0384C115.272 22.8461 116.774 23.9615 118.969 23.9615C121.356 23.9615 123.281 22.6153 123.281 21.6923C123.281 21.2307 123.127 21.1923 122.126 21.1538H122.128ZM114.851 19.7307C114.081 20.423 113.311 20.8077 112.233 20.8077C110.808 20.8077 109.884 19.5769 109.922 17.4615C109.922 14.8077 111.809 13.3461 114.851 12.923V19.7307Z" fill="#FF4D4D"/><path d="M83.1577 21.1538C82.5031 21.1153 82.2721 20.8461 82.2721 20.1153L82.3106 9.84613C82.3491 5.69229 79.2303 3.26921 74.9563 3.26921C74.8831 3.26921 74.8138 3.27114 74.7426 3.27306V3.26921C69.0921 3.26921 65.4458 5.7519 65.4458 8.85959C65.4458 10.5 66.495 11.5481 67.9967 11.5481C69.7794 11.5481 70.6554 10.5654 71.0019 7.98651C71.2233 6.33844 71.8009 5.51921 73.3892 5.5096C74.8562 5.61344 75.8785 6.82498 75.8785 8.84613V11.5C68.7937 12.1154 65.2128 14.7692 65.1743 18.7307C65.2128 21.923 67.3691 24 70.4109 24C73.4527 24 75.1854 22.3077 76.148 20.9615V21.0384C76.302 22.8461 77.8037 23.9615 79.9984 23.9615C82.3857 23.9615 84.3109 22.6153 84.3109 21.6923C84.3109 21.2307 84.1569 21.1923 83.1558 21.1538H83.1577ZM75.8804 19.7307C75.1103 20.423 74.3402 20.8077 73.2621 20.8077C71.8375 20.8077 70.9134 19.5769 70.9519 17.4615C70.9519 14.8077 72.8386 13.3461 75.8804 12.923V19.7307Z" fill="#FF4D4D"/><path d="M94.1129 5.15575C96.3846 5.15575 97.1104 6.33075 97.3337 7.98844C97.6822 10.5673 98.5563 11.55 100.339 11.55C101.843 11.55 102.89 10.5019 102.89 8.86152C102.89 5.67306 100.302 3.43268 95.3315 3.31537C95.2025 3.31152 95.0639 3.3096 94.9195 3.3096C89.2979 3.3096 84.8699 7.92498 84.9085 13.925C84.947 19.6942 89.0669 23.925 94.573 23.8865C97.6148 23.848 99.694 22.7711 101.542 20.348C102.158 19.5404 102.351 18.848 102.004 18.5788C101.658 18.3096 101.427 18.5019 100.772 18.8096C99.7326 19.5404 98.4619 20.0019 96.7292 20.0019C93.2254 20.0019 90.9536 17.2711 90.8766 10.3865C90.8766 6.88652 92.1087 5.15575 94.1109 5.15575H94.1129Z" fill="#FF4D4D"/><path d="M48.6268 17.2192C48.236 17.0173 47.9492 17.1789 47.4582 17.6712C46.5707 18.5789 45.406 19.2654 43.7022 19.5827C41.2899 20.0308 39.1028 19.1077 37.6243 16.1596L46.7286 12.0231C47.8356 11.5308 48.5325 10.7116 48.5325 9.31926C48.5325 6.61541 46.1549 3.50195 40.7816 3.50195C35.4084 3.50195 30.8572 7.63849 30.8572 13.5789C30.8572 15.4769 31.2422 17.175 31.9334 18.6212C31.9372 18.65 31.943 18.6769 31.9565 18.7019C33.8932 22.5539 37.9015 24.6442 42.2929 23.7962C45.277 23.2019 47.1233 21.7635 48.4959 19.0442C48.9541 18.1385 49.0157 17.4212 48.6268 17.2212V17.2192ZM40.0423 5.30387C42.2563 5.30387 43.3229 8.21157 43.3229 9.68656C43.3229 10.5462 42.9956 11.2423 42.2563 11.6116L36.9659 14.2731C36.679 13.2077 36.5558 12.0212 36.5558 10.75C36.5558 7.63657 37.8688 5.30195 40.0404 5.30195L40.0423 5.30387Z" fill="#FF4D4D"/></svg>