<svg width="160" height="160" viewBox="0 0 160 160" fill="none" xmlns="http://www.w3.org/2000/svg">
<path d="M99.5954 7.31563L40.2961 16.0405C18.9451 19.1819 4.18334 39.0369 7.32475 60.3879L16.0496 119.687C19.191 141.038 39.046 155.8 60.397 152.659L119.696 143.934C141.047 140.792 155.809 120.937 152.668 99.5863L143.943 40.287C140.801 18.936 120.946 4.17422 99.5954 7.31563Z" fill="#FFC800"/>
<path d="M133.618 40.7908L113.903 30.5419C112.267 29.6886 110.418 29.3419 108.587 29.5375L28.8807 38.0441C23.9473 38.5686 20.2851 42.853 20.5162 47.8041L22.5518 90.6575C22.7029 93.8219 24.6051 96.6308 27.4851 97.9553L50.9607 108.684V57.6797L133.627 40.7997L133.618 40.7908Z" fill="#FF4D4D"/>
<path d="M127.334 93.3067L51.7602 108.364C48.2668 109.067 45.3246 106.676 45.2091 103.049L43.6713 54.8711C43.5557 51.2445 46.4713 47.9911 50.1513 47.6445L129.885 40.1956C133.574 39.8578 136.445 42.1156 136.276 45.2178L134 86.4089C133.831 89.5022 130.827 92.6045 127.334 93.2978V93.3067Z" fill="#FF4D4D"/>
<path d="M103.343 89.4661L55.0941 98.2661C52.8985 98.6661 51.0496 97.1639 50.9874 94.9239L50.0719 61.0128C50.0096 58.7728 51.823 56.7372 54.1074 56.4795L104.187 51.0217C106.472 50.7728 108.294 52.2395 108.241 54.2661L107.441 85.0395C107.387 87.075 105.547 89.0572 103.343 89.4572V89.4661Z" fill="#EAE8E4" stroke="black" stroke-width="0.8" stroke-linecap="round" stroke-linejoin="round"/>
<path d="M50.2397 67.1369L50.0797 61.1369C50.0175 58.8969 51.8308 56.8614 54.1152 56.6036L104.186 51.1369C106.471 50.888 108.293 52.3547 108.24 54.3814L108.071 60.808" stroke="#000001" stroke-width="0.8" stroke-miterlimit="10" stroke-linecap="round"/>
<path d="M107.529 81.3858L107.431 85.1458C107.378 87.1813 105.538 89.1635 103.333 89.5635L55.0845 98.3724C52.889 98.7724 51.0401 97.2702 50.9778 95.0302L50.5156 77.7324" stroke="#000001" stroke-width="0.8" stroke-miterlimit="10" stroke-linecap="round"/>
<path d="M128.472 59.0139L115.174 60.7294C114.579 60.8094 114.108 60.4361 114.125 59.9028L114.321 53.8761C114.339 53.3428 114.845 52.8539 115.441 52.7917L128.845 51.2628C129.441 51.1917 129.912 51.5561 129.885 52.0717L129.601 57.9294C129.574 58.445 129.068 58.925 128.472 59.005V59.0139Z" fill="#D9D3C7" stroke="#000001" stroke-width="0.8" stroke-miterlimit="10" stroke-linecap="round"/>
<path d="M45.2097 103.057L43.6719 54.8793C43.6719 54.8793 43.7697 47.7948 52.9785 47.3859L116.365 41.457" stroke="#000001" stroke-width="0.8" stroke-miterlimit="10" stroke-linecap="round"/>
<path d="M135.733 55.0137L134 86.4181C134 86.4181 133.591 92.0714 127.333 93.307L51.7601 108.365C51.7601 108.365 45.3957 109.191 45.209 103.049" stroke="#000001" stroke-width="0.8" stroke-miterlimit="10" stroke-linecap="round"/>
<path d="M82.2754 64.1953C74.1776 71.3509 70.1598 75.5198 62.0176 83.5642" stroke="#FAF9F7" stroke-width="0.8" stroke-miterlimit="10" stroke-linecap="round"/>
<path d="M98.7924 61.2266C90.5969 68.1955 86.4902 71.8221 78.2324 79.6621" stroke="#FAF9F7" stroke-width="0.8" stroke-miterlimit="10" stroke-linecap="round"/>
<path d="M99.4761 69.2266C91.3339 76.3021 88.3383 78.9599 80.125 86.8799" stroke="#FAF9F7" stroke-width="0.8" stroke-miterlimit="10" stroke-linecap="round"/>
<path d="M71.9114 62.8789C65.3959 68.6922 67.9025 66.4167 59.1914 74.8256" stroke="#FAF9F7" stroke-width="0.8" stroke-miterlimit="10" stroke-linecap="round"/>
<path d="M95.8832 106.17C93.6699 110.081 89.5365 113.512 84.2565 115.814C76.0165 119.405 67.0121 119.654 58.2832 118.188" stroke="#000001" stroke-width="0.87" stroke-linecap="round" stroke-linejoin="round"/>
<path d="M70.6206 94.0273C70.6206 94.0273 65.5361 99.0496 60.3184 101.272" stroke="#000102" stroke-width="0.87" stroke-linecap="round" stroke-linejoin="round"/>
<path d="M70.6213 94.0273L69.2969 101.93" stroke="#000102" stroke-width="0.87" stroke-linecap="round" stroke-linejoin="round"/>
<path d="M68.834 95.7422L66.3984 101.716" stroke="#000102" stroke-width="0.87" stroke-linecap="round" stroke-linejoin="round"/>
<path d="M65.0562 121.681L62.5762 113.654" stroke="#000102" stroke-width="0.87" stroke-linecap="round" stroke-linejoin="round"/>
<path d="M93.8478 107.779C93.8478 107.779 80.2123 110.686 74.0078 120.882" stroke="#000102" stroke-width="0.87" stroke-linecap="round" stroke-linejoin="round"/>
<path d="M57.3242 104.231C57.8931 104.329 65.7864 102.142 71.582 107.245" stroke="#000102" stroke-width="0.87" stroke-linecap="round" stroke-linejoin="round"/>
<path d="M71.3227 113.432C71.3227 113.432 65.4561 115.609 61.3672 102.916C61.3672 102.916 73.0294 104.96 71.3227 113.432Z" fill="#718238"/>
<path d="M63.9629 105.227L70.6829 112.267" stroke="#000102" stroke-width="0.87" stroke-linecap="round" stroke-linejoin="round"/>
<path d="M59.6977 114.275L59.0488 118.729" stroke="#000102" stroke-width="0.87" stroke-linecap="round" stroke-linejoin="round"/>
<path d="M65.2533 132.765L38.0178 117.84C34.7467 115.974 34.7467 111.263 38.0178 109.396L65.2533 104.756C69.1022 102.56 73.8133 102.56 77.6622 104.756L94.8089 114.534C98.08 116.4 98.08 121.112 94.8089 122.978L77.6622 132.756C73.8133 134.952 69.1022 134.952 65.2533 132.756V132.765Z" fill="white" stroke="#000102" stroke-width="0.87" stroke-linecap="round" stroke-linejoin="round"/>
<path d="M64.5857 127.281L29.3324 108.774C25.608 106.65 25.608 101.272 29.3324 99.1473L55.6346 84.1429C60.0168 81.6451 65.3946 81.6451 69.7857 84.1429L105.039 102.65C108.764 104.774 108.764 110.152 105.039 112.276L78.7368 127.281C74.3546 129.778 68.9768 129.778 64.5857 127.281Z" fill="white" stroke="#000102" stroke-width="0.87" stroke-linecap="round" stroke-linejoin="round"/>
<path d="M66.2044 121.441L36.951 106.356C34.071 104.712 34.071 100.57 36.951 98.9254L57.2532 87.3432C60.6399 85.4143 64.791 85.4143 68.1777 87.3432L97.431 102.428C100.311 104.072 100.311 108.214 97.431 109.859L77.1288 121.441C73.7421 123.37 69.591 123.37 66.2044 121.441Z" fill="#9B9C99"/>
<path d="M77.1284 121.44L95.3773 111.031L77.1284 100.622C73.7417 98.6936 69.5906 98.6936 66.204 100.622L47.9551 111.031L66.204 121.44C69.5906 123.369 73.7417 123.369 77.1284 121.44Z" fill="white"/>
<path d="M49.3509 111.947C51.6709 113.494 52.7643 114.098 54.4087 114.987C56.5776 116.16 58.862 117.111 60.9954 118.365C69.4398 123.334 71.1731 125.911 79.1287 121.289C82.6842 119.227 89.4931 115.903 91.3954 114.418C95.4487 111.254 103.164 108.667 95.9643 105.583C93.8843 104.694 92.0265 96.7203 90.7287 94.9248C88.4798 91.787 88.5331 90.3559 84.9598 88.7292C84.3198 88.4359 81.8665 87.9559 79.5376 88.7292C73.342 84.0803 65.5998 85.6359 60.1776 90.2759C59.2798 91.0492 54.2043 92.7292 53.2087 93.3692C48.702 96.267 40.2043 96.3114 37.7243 98.7914C36.9509 99.5648 37.7243 98.7914 35.4043 100.338C34.3287 101.058 34.6309 102.658 34.6309 104.214C34.6309 105.494 38.2131 106.356 39.2798 107.307C40.062 108 48.7198 111.538 49.342 111.956L49.3509 111.947Z" fill="#FFDE66"/>
<path d="M75.9896 101.929C74.2207 98.1333 74.2474 95.1644 75.074 92.9333C76.0874 90.1777 78.5674 88.1422 81.5007 87.9644C82.8252 87.8844 84.3718 88.1511 85.9629 89.2088C90.1852 92.0444 93.4296 102.427 93.4296 102.427C93.4296 102.427 94.7629 106.24 97.8207 106.578" stroke="#000102" stroke-width="0.87" stroke-linecap="round" stroke-linejoin="round"/>
<path d="M70.2656 111.68C70.559 105.298 78.9501 100.071 84.0167 99.8398" stroke="#000102" stroke-width="0.87" stroke-linecap="round" stroke-linejoin="round"/>
<path d="M55.1543 106.4C61.2343 101.627 66.8787 99.8847 74.2565 104.231" stroke="#000102" stroke-width="0.87" stroke-linecap="round" stroke-linejoin="round"/>
<path d="M64.7715 116.284C70.6293 113.742 75.1537 114.782 77.5804 119.244" stroke="#000102" stroke-width="0.87" stroke-linecap="round" stroke-linejoin="round"/>
<path d="M75.5184 122.89C73.5539 119.299 71.5806 115.557 67.8206 115.574C66.9139 115.574 65.9095 115.797 64.7806 116.294L60.3184 118.045" stroke="#000102" stroke-width="0.87" stroke-linecap="round" stroke-linejoin="round"/>
<path d="M49.9453 110.312C60.3631 102.934 66.9853 107.059 68.2386 110.89" stroke="#000102" stroke-width="0.87" stroke-linecap="round" stroke-linejoin="round"/>
<path d="M36.8613 104.054C47.2791 96.6766 53.9013 100.801 55.1547 104.632" stroke="#000102" stroke-width="0.87" stroke-linecap="round" stroke-linejoin="round"/>
<path d="M67.3945 114.845C71.7945 109.218 77.3056 107.262 83.0479 109.307" stroke="#000102" stroke-width="0.87" stroke-linecap="round" stroke-linejoin="round"/>
<path d="M53.0215 101.139C56.0437 95.6991 60.017 93.9658 64.3015 96.2147" stroke="#000102" stroke-width="0.87" stroke-linecap="round" stroke-linejoin="round"/>
<path d="M76.5938 117.413C76.5938 117.413 78.7715 112.995 80.3182 111.475C82.7093 109.137 86.7271 106.489 91.6604 108.204C99.776 111.022 86.7182 96.1241 82.1849 100.435" stroke="#000102" stroke-width="0.87" stroke-linecap="round" stroke-linejoin="round"/>
<path d="M94.9498 110.391C94.9498 110.391 82.0609 105.707 80.2031 118.382" stroke="#000102" stroke-width="0.87" stroke-linecap="round" stroke-linejoin="round"/>
<path d="M58.248 109.219C59.6258 111.477 62.9947 114.65 65.2792 115.859" stroke="#000102" stroke-width="0.87" stroke-linecap="round" stroke-linejoin="round"/>
<path d="M59.457 90.6054C65.537 85.832 71.1815 84.0898 78.5593 88.4365" stroke="#000102" stroke-width="0.87" stroke-linecap="round" stroke-linejoin="round"/>
<path d="M56.123 94.5154C66.5408 87.1376 73.163 91.262 74.4164 95.0931" stroke="#000102" stroke-width="0.87" stroke-linecap="round" stroke-linejoin="round"/>
<path d="M60.3105 91.4668C63.0483 95.8135 69.7239 101.902 74.2572 104.231" stroke="#000102" stroke-width="0.87" stroke-linecap="round" stroke-linejoin="round"/>
<path d="M39.0027 97.7793L37.5183 98.606C36.8338 98.9882 36.1849 99.4504 35.6516 100.028C34.3627 101.406 33.0649 103.877 36.9405 106.357L49.3494 111.842L65.7049 121.246C65.7049 121.246 66.2916 121.557 66.5227 121.664C71.8827 124.286 74.3894 123.904 77.9538 121.895L95.7583 111.868C97.1627 111.077 98.3627 109.93 99.1094 108.499C99.9449 106.882 100.309 104.89 98.4072 103.21L92.6649 99.5837" stroke="#000102" stroke-width="0.87" stroke-linecap="round" stroke-linejoin="round"/>
<path d="M75.3145 99.9296C75.3145 99.9296 80.1145 88.134 91.4389 97.5029" stroke="#000102" stroke-width="0.87" stroke-linecap="round" stroke-linejoin="round"/>
<path d="M80.5778 107.912C80.5778 107.912 76.2933 103.352 86.4 94.6582C86.4 94.6582 89.0489 106.196 80.5778 107.912Z" fill="#718238"/>
<path d="M85.136 97.8848L81.0293 106.711" stroke="#000102" stroke-width="0.87" stroke-linecap="round" stroke-linejoin="round"/>
<path d="M50.3649 102.123C50.8126 99.4156 48.9336 96.85 46.168 96.3926C43.4024 95.9353 40.7975 97.7594 40.3498 100.467C39.902 103.174 41.781 105.74 44.5466 106.197C47.3122 106.655 49.9171 104.83 50.3649 102.123Z" fill="#E04859"/>
<path d="M63.2906 104.91C63.7384 102.203 61.8594 99.6371 59.0938 99.1797C56.3282 98.7224 53.7233 100.546 53.2755 103.254C52.8278 105.961 54.7068 108.527 57.4724 108.984C60.238 109.442 62.8429 107.618 63.2906 104.91Z" fill="#E04859"/>
<path d="M60.7848 93.5898C61.2325 90.8824 59.3535 88.3168 56.5879 87.8594C53.8223 87.4021 51.2174 89.2262 50.7697 91.9336C50.3219 94.6411 52.2009 97.2067 54.9665 97.664C57.7321 98.1214 60.337 96.2973 60.7848 93.5898Z" fill="#E04859"/>
</svg>
