<svg width="180" height="180" viewBox="0 0 180 180" fill="none" xmlns="http://www.w3.org/2000/svg">
<g id="ilustraciones NUEVA WEB-22" clip-path="url(#clip0_8954_5830)">
<path id="Vector" d="M115.057 10.182L48.3457 19.9974C24.3258 23.5315 7.71883 45.8684 11.2529 69.8883L21.0684 136.6C24.6025 160.62 46.9393 177.227 70.9592 173.693L137.671 163.877C161.691 160.343 178.298 138.006 174.764 113.987L164.948 47.2747C161.414 23.2549 139.077 6.6479 115.057 10.182Z" fill="#FF4D4D"/>
<g id="Group 33289">
<path id="Vector_2" d="M126.22 70.46C126.22 70.46 129.59 74.06 135.36 73.1C141.13 72.15 139.55 63.24 139.55 63.24C136.99 50.32 124.5 53.45 124.5 53.45L126.22 70.46Z" fill="#F2F0EC"/>
<path id="Vector_3" d="M125.52 142L79.8099 149.22C73.0799 150.28 66.7699 145.66 65.7199 138.89L50.2199 42.7199C49.1599 35.9499 53.7599 29.5999 60.4899 28.5399L106.2 21.3199C112.93 20.2599 119.24 24.8799 120.29 31.6499L135.79 127.82C136.85 134.59 132.25 140.94 125.52 142Z" fill="#F2F0EC" stroke="black" stroke-linecap="round" stroke-linejoin="round"/>
<path id="Vector_4" d="M130.73 127.46L115.46 32.6399C114.81 28.4999 110.95 25.6599 106.83 26.3199L98.3599 27.6599L98.5799 29.0399C98.9499 31.4199 97.3399 33.6499 94.9699 34.0299L74.1499 37.3199C71.7799 37.6899 69.5699 36.0699 69.1899 33.6899L68.9699 32.3099L61.0099 33.5699C56.8899 34.2199 54.0799 38.1099 54.7199 42.2499L69.9899 137.07C70.6399 141.21 74.4999 144.05 78.6199 143.39L124.44 136.15C128.56 135.5 131.37 131.61 130.73 127.47V127.46Z" fill="#FAF9F7" stroke="black" stroke-linecap="round" stroke-linejoin="round"/>
<path id="Vector_5" d="M117.46 143.92C110.9 144.87 104.38 146 97.8399 147.08C94.3099 147.66 90.7199 148.02 87.2099 148.69C84.9299 149.12 82.8599 149.74 80.6199 149.5C72.0199 151.57 63.5799 154.74 54.8599 155.86L55.2799 163.52L62.3199 176.9C71.5299 177.37 76.0999 176.74 85.3199 176.9C92.9399 177.03 98.4599 170.1 106.07 169.68C110.1 169.45 116.66 169.81 120.69 169.68L110.69 157.37C110.69 157.37 114.77 151.64 117.47 143.94L117.46 143.92Z" fill="#F2F0EC"/>
<g id="Vector_6">
<path d="M134.66 98.2C136.97 98.67 138.27 101.02 138.79 103.51C139.81 108.44 138.57 114.9 135.45 118.52C134.32 119.83 130.92 122.15 128.27 118.27C128.27 118.27 124.93 111.92 130.31 102.98" fill="#F2F0EC"/>
<path d="M134.66 98.2C136.97 98.67 138.27 101.02 138.79 103.51C139.81 108.44 138.57 114.9 135.45 118.52C134.32 119.83 130.92 122.15 128.27 118.27C128.27 118.27 124.93 111.92 130.31 102.98" stroke="black" stroke-linecap="round" stroke-linejoin="round"/>
</g>
<path id="Vector_7" d="M120.31 169.28L111.12 157.03" stroke="black" stroke-linecap="round" stroke-linejoin="round"/>
<path id="Vector_8" d="M101.12 162.53C104.6 161.39 107.84 159.59 110.53 157.16C110.53 157.16 115.69 152.68 117.62 144.11" stroke="black" stroke-linecap="round" stroke-linejoin="round"/>
<path id="Vector_9" d="M140.17 93.9399C140.92 101.65 137.9 105.63 134.05 106.11C130.06 106.6 126.34 101.96 125.74 95.7299C125.13 89.5099 127.88 84.0599 131.86 83.5599C135.84 83.0599 139.57 87.7099 140.17 93.9399Z" fill="#F2F0EC" stroke="black" stroke-linecap="round" stroke-linejoin="round"/>
<path id="Vector_10" d="M132.72 88.6899L134.56 102.02C134.64 102.61 135.39 102.81 135.76 102.34C137.65 99.9299 140.89 94.0199 132.72 88.6899Z" fill="#F2F0EC" stroke="black" stroke-linecap="round" stroke-linejoin="round"/>
<path id="Vector_11" d="M137.55 72.0199C132.15 74.1999 130.59 73.3199 127 71.0599C126.22 73.2399 122.5 77.5499 124.34 84.8099C125.4 88.9699 127.97 91.1899 130.19 91.1799C136.01 91.1499 138.4 87.3299 138.4 80.3999C138.4 76.7399 138.07 73.1099 137.55 72.0299V72.0199Z" fill="#F2F0EC" stroke="black" stroke-linecap="round" stroke-linejoin="round"/>
<path id="Vector_12" d="M135.9 82.98C135.85 85.32 134.68 87.04 133.65 88.11C133.04 88.75 131.96 88.4 131.82 87.53L130.12 77.23C130.02 76.64 130.48 76.1 131.08 76.1H131.48C134.06 76.69 135.97 80.33 135.91 82.98H135.9Z" fill="#F2F0EC" stroke="black" stroke-linecap="round" stroke-linejoin="round"/>
<path id="Vector_13" d="M124.28 53.1999C124.28 53.1999 136.39 51.5599 139.48 61.3599C140.13 63.4299 140.36 65.1599 140.32 66.5899C140.19 70.8899 136.24 73.9299 132.01 73.1199C130.68 72.8599 129.14 72.3399 127.53 71.3199C127.15 71.0799 127.66 71.4599 127.28 71.1699" stroke="black" stroke-linecap="round" stroke-linejoin="round"/>
<path id="Vector_14" d="M111.966 100.843L79.1566 106.481C74.7858 107.232 71.851 111.381 72.6016 115.75C73.3522 120.118 77.5038 123.05 81.8746 122.299L114.684 116.661C119.055 115.91 121.989 111.76 121.239 107.392C120.488 103.024 116.337 100.092 111.966 100.843Z" fill="#718238"/>
<path id="Vector_15" d="M116.57 101.42C118.94 102.47 120.76 104.65 121.23 107.4C121.98 111.77 119.05 115.92 114.68 116.67L81.8598 122.31C77.4898 123.06 73.3398 120.13 72.5898 115.76" stroke="black" stroke-miterlimit="10" stroke-linecap="round"/>
<path id="Vector_16" d="M74.0899 78.95C74.7999 81.38 76.1699 83.57 77.6099 85.75C80.1599 88.75 83.4899 91.59 87.3499 93.2C89.8299 93.99 92.5399 94.44 95.3799 94.48C95.9899 94.42 96.5999 94.33 97.2299 94.19C97.3099 94.17 97.3899 94.16 97.4699 94.16C100.05 93.49 102.75 93.07 105.17 92.08C105.57 91.92 105.97 91.74 106.36 91.56C106.39 91.54 106.42 91.51 106.45 91.49C110.8 88.63 114.83 85.28 117.17 81.24C118.89 78.28 119.38 75.16 118.85 72.11C116.28 64.17 106.58 58.72 95.4599 59.52C82.8899 60.43 73.2599 68.97 73.9599 78.6C73.9599 78.64 73.9599 78.68 73.9699 78.72C74.0199 78.78 74.0599 78.86 74.0799 78.94L74.0899 78.95Z" fill="black"/>
<g id="Vector_17">
<path d="M79.4999 90.3399C87.7799 98.9699 100.42 95.4799 108.62 84.3099L79.4999 90.3399Z" fill="#FAF9F7"/>
<path d="M79.4999 90.3399C87.7799 98.9699 100.42 95.4799 108.62 84.3099" stroke="black" stroke-miterlimit="10" stroke-linecap="round"/>
</g>
<g id="Vector_18">
<path d="M88.0999 53.98C80.7599 56.18 78.9999 56.2 74.1799 61.67C70.8099 65.49 68.2899 70.26 68.0299 75.36C67.7699 80.45 70.0799 85.82 74.4899 88.38C76.0599 89.29 78.8299 90.75 80.5999 91.18C85.6299 92.4 90.5299 92.63 95.5899 91.54C99.1399 90.77 102.84 89.51 105.99 87.71C108.9 86.06 110.84 83.05 112.32 80.05C113.42 77.81 113.64 75.22 113.42 72.73C112.98 67.66 110.78 62.77 107.28 59.07C105.73 57.43 103.91 56.01 101.8 55.2C100.13 54.55 98.3299 54.31 96.5499 54.08C93.7399 53.72 90.8499 53.27 88.0999 53.99" fill="#FAF9F7"/>
<path d="M88.0999 53.98C80.7599 56.18 78.9999 56.2 74.1799 61.67C70.8099 65.49 68.2899 70.26 68.0299 75.36C67.7699 80.45 70.0799 85.82 74.4899 88.38C76.0599 89.29 78.8299 90.75 80.5999 91.18C85.6299 92.4 90.5299 92.63 95.5899 91.54C99.1399 90.77 102.84 89.51 105.99 87.71C108.9 86.06 110.84 83.05 112.32 80.05C113.42 77.81 113.64 75.22 113.42 72.73C112.98 67.66 110.78 62.77 107.28 59.07C105.73 57.43 103.91 56.01 101.8 55.2C100.13 54.55 98.3299 54.31 96.5499 54.08C93.7399 53.72 90.8499 53.27 88.0999 53.99" stroke="black" stroke-miterlimit="10" stroke-linecap="round"/>
</g>
<path id="Vector_19" d="M104.22 65.2399C101.77 62.6999 97.8299 61.5299 94.1099 60.4799C91.5199 59.7499 88.8799 59.0199 86.1899 58.7799C84.4299 59.1699 82.7599 60.0199 81.3399 60.8599C80.3299 61.4599 81.3399 63.4599 80.4399 64.1699C78.4899 66.0999 77.4299 66.7099 76.2399 69.0299C75.7099 70.8799 73.1199 73.0899 73.2699 75.0199C74.2999 77.2999 75.7299 79.4699 77.3099 81.4199C78.1799 82.4899 79.3999 85.4499 80.5399 86.4299C92.7199 88.1699 86.4099 86.5899 89.6499 86.6699C92.7099 86.7499 95.7799 86.1699 98.4599 84.9999C99.8699 84.3899 101.18 83.6099 102.24 82.6399C103.83 81.1999 104.82 79.3799 105.56 77.5199C107.17 73.4699 107.49 68.6199 104.22 65.2399Z" fill="#FFC800" stroke="#FFC800" stroke-miterlimit="10"/>
<path id="Vector_20" d="M105.99 78.33C104.37 81.32 104.01 84.13 100.63 85.79C98.9099 86.64 96.9999 87.28 95.0199 87.57C93.8499 87.74 92.6999 87.66 91.6899 87.08C90.8599 86.6 90.2399 85.9 89.7199 85.2C89.4499 84.83 89.1899 84.45 88.9399 84.07C88.6699 83.65 87.8899 83.99 88.1599 84.41C89.1899 85.99 90.5099 87.85 92.7699 88.28C94.0799 88.53 95.4299 88.29 96.6899 88C97.7099 87.76 98.7099 87.44 99.6699 87.06C103.52 85.51 104.99 82.05 106.96 78.87C107.87 77.4 107.97 76.18 107.85 74.98C107.23 76.15 106.54 77.29 105.98 78.33H105.99Z" fill="#FFC800" stroke="#FFC800" stroke-miterlimit="10"/>
<path id="Vector_21" d="M108.92 67.7C108.43 66.91 107.93 66.3 107.36 65.75C107.8 67 107.85 68.44 107.59 69.65C107.14 71.8 107.7 73.38 107.86 74.98C109.2 72.45 110.21 69.78 108.92 67.7Z" fill="#FFC800" stroke="#FFC800" stroke-miterlimit="10"/>
<path id="Vector_22" d="M107.35 65.75C107.01 64.77 106.43 63.91 105.57 63.36C104.91 62.12 103.96 60.98 102.77 60.02C100.4 58.1 97.2799 56.94 93.9999 56.85C91.9799 56.8 89.9499 57.07 87.9899 57.43C87.0799 57.6 86.1699 57.79 85.2799 58.03C85.1199 58.34 84.9499 58.65 84.7799 58.96C85.5199 58.73 86.2699 58.54 87.0299 58.38C88.7999 58 90.6399 57.7 92.4699 57.61C94.1499 57.53 95.6499 58.78 97.2499 59.23C98.6499 59.63 100.12 59.11 101.27 59.88C102.36 60.61 103.29 61.49 104.01 62.47C102.43 61.66 100.71 61.04 98.9799 60.58C97.6499 60.22 96.2899 59.94 94.9199 59.7C93.6199 59.46 92.2999 59.24 90.9899 59.08C89.6899 58.92 88.3799 58.85 87.0799 58.95C86.4399 59 85.8099 59.1 85.2099 59.26C84.9699 59.32 84.7199 59.39 84.4899 59.48C84.2499 59.9 83.9999 60.31 83.7499 60.72C83.8299 60.82 83.9399 60.9 84.1099 60.95C84.5699 61.09 84.8299 60.59 84.5499 60.34C84.6099 60.31 84.6399 60.24 84.7099 60.21C84.9499 60.08 85.2899 60.01 85.5699 59.94C86.1299 59.8 86.7099 59.71 87.2899 59.67C88.4699 59.58 89.6799 59.67 90.8599 59.8C93.3499 60.1 95.8699 60.56 98.2899 61.17C100.59 61.75 102.91 62.61 104.87 63.82C105.27 64.6 105.55 65.42 105.7 66.27C106.19 69.11 105.2 72.13 102.98 74.29C102.82 74.44 102.79 74.65 102.96 74.81C103.11 74.95 103.43 74.98 103.58 74.84C105.72 72.77 104.7 79.28 106.69 67.25C106.83 66.39 106.48 65.55 106.19 64.74C106.62 65.08 107 65.4 107.36 65.75H107.35Z" fill="#FFC800" stroke="#FFC800" stroke-miterlimit="10"/>
<path id="Vector_23" d="M80.9598 83.0399C78.0198 81.9499 75.1398 80.3099 73.0998 78.1599C73.0998 78.1799 73.0998 78.1899 73.0898 78.2099C73.3198 78.7999 73.5698 79.3699 73.8498 79.9299C75.8098 81.5599 78.1798 82.8099 80.6998 83.7399C81.2198 83.9299 81.4798 83.2299 80.9598 83.0399Z" fill="#FFC800" stroke="#FFC800" stroke-miterlimit="10"/>
<path id="Vector_24" d="M101.88 65.5399C106.58 72.9799 101.94 77.9899 98.3899 79.3899" stroke="black" stroke-miterlimit="10" stroke-linecap="round"/>
<path id="Vector_25" d="M97.4899 73.4199C95.9599 77.1099 89.0499 80.8799 85.5399 80.1299C84.1599 79.8399 83.3899 81.1399 82.2899 80.2499" stroke="black" stroke-miterlimit="10" stroke-linecap="round"/>
<path id="Vector_26" d="M82.2799 80.2C80.7099 80.17 79.5499 80 78.4299 79.25C77.0199 78.31 76.6299 77.81 75.5299 75.1C74.7399 73.14 72.0499 67.33 78.9599 63.36" stroke="black" stroke-miterlimit="10" stroke-linecap="round"/>
<path id="Vector_27" d="M81.0999 68.45C82.2299 66.56 84.1699 65.22 86.2899 64.62C88.4099 64.02 90.6899 64.1 92.8199 64.64C96.5999 65.59 101.89 71.29 102.45 75.82" stroke="black" stroke-miterlimit="10" stroke-linecap="round"/>
<path id="Vector_28" d="M102.99 62.84C108.47 63.31 110.27 68.38 110.11 72.13C110.11 72.13 110.1 76.17 108.3 79.81C107.21 82.02 102.71 86.02 100.12 87.35C95.4 89.78 88.52 89.88 85.58 88.26" stroke="black" stroke-miterlimit="10" stroke-linecap="round"/>
<path id="Vector_29" d="M102.96 63.58C109.04 67.83 108.01 74.2 105.83 78.19C103.65 82.18 97.14 86.97 93.2 85.56" stroke="black" stroke-miterlimit="10" stroke-linecap="round"/>
<path id="Vector_30" d="M86.6599 64.6699C85.4099 65.8199 84.0099 67.7899 83.4399 69.4499C82.5699 71.9899 84.1799 74.6599 86.8099 75.1899C89.9099 75.8199 93.4499 74.5399 95.0599 71.8699C95.6399 70.8999 95.7399 69.6899 95.2099 68.6899C94.9899 68.2799 94.6999 67.9699 94.4099 67.8499C91.4599 66.7299 88.8698 68.8799 87.2698 71.3099C86.9998 71.7999 86.5898 72.2499 86.4498 73.0299C86.2898 73.8999 86.3299 73.8999 86.2599 74.6499" stroke="black" stroke-miterlimit="10" stroke-linecap="round"/>
<path id="Vector_31" d="M80.4399 64.17C82.5599 62.31 85.1999 60.75 87.8899 60.31C89.9499 59.97 92.0899 59.82 94.0899 60.41C96.0899 61 97.9299 62.46 98.5099 64.46" stroke="black" stroke-miterlimit="10" stroke-linecap="round"/>
<path id="Vector_32" d="M73.6099 81.2699C75.3999 83.7399 77.5599 86.0899 80.3699 87.2799C83.0999 88.4299 86.2499 88.3499 89.0399 87.3699C91.8299 86.3799 94.2599 84.5299 96.1999 82.2999C98.1099 80.0999 100.74 74.9999 100.87 71.7599" stroke="black" stroke-miterlimit="10" stroke-linecap="round"/>
<path id="Vector_33" d="M78.83 80.99C81.02 83.26 84.56 84.02 87.61 83.36C90.66 82.7 93.47 80.37 95.19 77.78C96.7 75.51 98.99 71.35 97.72 67.75" stroke="black" stroke-miterlimit="10" stroke-linecap="round"/>
<path id="Vector_34" d="M100.55 60.5299C98.9099 57.8299 95.6199 56.3199 92.4999 56.2899C89.2899 56.2599 86.3199 58.1299 83.8799 60.0699C82.4899 61.1699 81.4899 62.7199 80.4299 64.1799" stroke="black" stroke-miterlimit="10" stroke-linecap="round"/>
<path id="Vector_35" d="M96.8699 73.0199C96.8699 73.0199 103.16 74.9899 105.8 67.8799C105.8 67.8799 98.9499 66.5599 96.8699 73.0199Z" fill="#718238"/>
<path id="Vector_36" d="M97.8398 72.41L104 68.8199" stroke="black" stroke-linecap="round" stroke-linejoin="round"/>
<path id="Vector_37" d="M100.26 60.52C100.26 60.52 98.09 61.2 97.97 63.02C97.79 65.05 99.39 67 101.76 66.33C105.11 65.35 103.66 62.13 103.66 62.13C103.66 62.13 102.99 59.86 100.26 60.52Z" fill="#B1005A"/>
<path id="Vector_38" d="M80.4199 81.79C80.4199 81.79 77.8599 75.71 70.7299 78.29C70.7299 78.29 74.1499 84.37 80.4199 81.79Z" fill="#718238"/>
<path id="Vector_39" d="M79.9499 81.6699L73.2299 79.2899" stroke="black" stroke-linecap="round" stroke-linejoin="round"/>
<path id="Vector_40" d="M80.6399 77.23C80.6399 77.23 79.4499 77.79 79.2699 79.62C79.0899 81.65 81.2499 83.52 83.6199 82.8C86.9699 81.82 84.9599 78.68 84.9599 78.68C84.9599 78.68 83.2399 75.81 80.6399 77.23Z" fill="#B1005A"/>
<path id="Vector_41" d="M79.5699 67.4C79.5699 67.4 77.1299 67.66 77.3299 70.47C77.5299 73.28 80.6999 73.82 82.6999 72.93C84.6999 72.04 84.1899 69.37 84.1899 69.37C84.1899 69.37 83.4299 66.44 79.5699 67.4Z" fill="#B1005A"/>
<g id="Vector_42">
<path d="M83.3699 153.12L83.0599 130.69C83.7399 115.75 64.7199 110.75 64.7199 110.75C69.0899 100.68 69.7999 93.01 69.5299 88.07C69.2799 83.69 64.9799 80.7 60.8099 82.08C56.2399 83.59 50.2399 87.69 44.7099 98.14C33.8099 118.73 49.9799 152.64 49.9799 152.64L62.3299 178.88" fill="#F2F0EC"/>
<path d="M83.3699 153.12L83.0599 130.69C83.7399 115.75 64.7199 110.75 64.7199 110.75C69.0899 100.68 69.7999 93.01 69.5299 88.07C69.2799 83.69 64.9799 80.7 60.8099 82.08C56.2399 83.59 50.2399 87.69 44.7099 98.14C33.8099 118.73 49.9799 152.64 49.9799 152.64L62.3299 178.88" stroke="black" stroke-linecap="round" stroke-linejoin="round"/>
</g>
<path id="Vector_43" d="M49.2599 90.99C49.2599 90.99 55.9899 95.26 58.9099 93.59C61.8299 91.91 62.5499 86.68 58.4299 82.96" stroke="black" stroke-miterlimit="10" stroke-linecap="round"/>
</g>
</g>
<defs>
<clipPath id="clip0_8954_5830">
<rect width="180" height="180" fill="white"/>
</clipPath>
</defs>
</svg>
