<svg width="160" height="160" viewBox="0 0 160 160" fill="none" xmlns="http://www.w3.org/2000/svg">
<g clip-path="url(#clip0_1105_13807)">
<path d="M117.91 14.2723L58.6105 5.54741C37.2596 2.406 17.4046 17.1678 14.2631 38.5187L5.53829 97.8181C2.39688 119.169 17.1586 139.024 38.5096 142.165L97.809 150.89C119.16 154.032 139.015 139.27 142.156 117.919L150.881 58.6196C154.023 37.2687 139.261 17.4137 117.91 14.2723Z" fill="#718238"/>
<path d="M74.488 40.2227L132.444 43.4849L118.764 61.636L88.5857 71.956L69.0391 71.4049L74.488 40.2227Z" fill="#9B9C99"/>
<path d="M49.1289 20.3477C49.1289 20.3477 62.72 43.7165 63.7511 43.4054C47.8756 48.2232 62.7911 43.0854 132.204 43.4054L113.609 20.3477H49.1289Z" fill="#CECCCA" stroke="black" stroke-linecap="round" stroke-linejoin="round"/>
<path d="M21.9648 43.4844L87.6093 60.3555V118.453L29.076 93.591L21.9648 43.4844Z" fill="#EAE8E4" stroke="black" stroke-linecap="round" stroke-linejoin="round"/>
<path d="M87.6094 60.3555L132.445 43.4844L129.618 94.5688L87.6094 118.453V60.3555Z" fill="#EAE8E4" stroke="black" stroke-linecap="round" stroke-linejoin="round"/>
<path d="M103.422 54.7017V58.0083C103.422 60.995 105.875 62.7106 107.662 61.8661L116.542 57.6972C118.32 56.5061 119.751 55.6261 119.751 52.6483V47.875" fill="#FF4D4D"/>
<path d="M21.8574 43.4048L40.7552 24.8359H103.049L87.3685 60.2759L21.8574 43.4048Z" fill="#EAE8E4" stroke="black" stroke-linecap="round" stroke-linejoin="round"/>
<path d="M87.6094 60.3555L132.445 43.4844" stroke="black" stroke-linecap="round" stroke-linejoin="round"/>
<path d="M61.0037 98.6133L123.35 116.613L90.7459 149.209L30.3281 127.307L61.0037 98.6133Z" fill="#979895"/>
<path d="M125.031 107.146L123.386 116.604L63.7774 100.257L63.1641 91.3418L125.031 107.146Z" fill="#E7E5E1"/>
<path d="M119.511 114.391C119.44 115.04 119.368 115.68 119.297 116.328C119.217 117.102 119.377 118.044 118.968 118.764C118.897 118.897 118.791 119.013 118.675 119.12L116.88 120.871C115.235 122.48 113.591 124.08 111.946 125.688C109.822 127.76 107.697 129.831 105.573 131.902C103.475 133.946 101.377 135.991 99.2796 138.044C97.7151 139.573 96.1507 141.102 94.5862 142.622C94.0529 143.146 93.5107 143.671 92.9773 144.195C92.7551 144.417 91.8307 145.36 90.6929 146.435C89.5551 147.511 87.6529 146.942 87.4129 145.466L87.3418 145.004L119.511 114.391Z" fill="#D7A91A"/>
<path d="M105.076 102.124L108.623 103.252C111.343 104.115 123.441 111.439 121.37 113.368L86.7475 146.221C85.5741 147.315 86.8541 143.421 85.3875 142.755L31.4941 114.719L68.2141 93.7324L105.067 102.124H105.076Z" fill="#F7E4A3"/>
<path d="M125.004 106.987L62.5771 87.9023L25.7949 118.605L87.706 141.129L125.004 106.987Z" fill="#F7F6F5"/>
<path d="M120.293 114.32L88.7734 143.707" stroke="#000001" stroke-width="0.89" stroke-linecap="round" stroke-linejoin="round"/>
<path d="M88.0359 140.799L91.1115 149.226L30.0448 127.181L25.707 118.426L88.0359 140.799Z" fill="#E7E5E1"/>
<path d="M25.875 118.676L87.6972 140.862L90.7461 149.209L31.795 127.796L29.8839 127.005L25.875 118.667L62.5772 87.9023L125.004 106.987L87.6883 141.022" stroke="#000001" stroke-width="0.89" stroke-linecap="round" stroke-linejoin="round"/>
<path d="M125.057 107.244L123.449 116.533L119.893 120.284L90.8086 149.129" stroke="#000001" stroke-width="0.89" stroke-linecap="round" stroke-linejoin="round"/>
<path d="M47.6803 107.529C48.3381 107.04 49.067 106.631 49.787 106.24C53.5559 104.222 57.3248 102.204 61.0848 100.186L68.4892 96.2219C68.4892 96.2219 74.2403 93.6885 81.6714 97.3952C85.8314 99.4752 100.374 108.133 104.409 110.435C105.52 111.066 106.551 111.777 107.138 112.969C107.663 114.026 107.671 115.2 107.343 116.32C106.56 118.986 104.071 120.311 101.84 121.6C99.6803 122.853 97.5292 124.106 95.3692 125.351C91.5559 127.564 87.7426 129.777 83.9381 131.991C83.707 132.124 83.4759 132.257 83.2359 132.4C83.2359 132.4 75.7514 134.222 70.2403 130.551C66.6581 128.115 52.4448 119.555 48.8714 117.111C46.027 115.155 43.7159 112.764 46.0092 109.253C46.4626 108.569 47.0403 108.009 47.6892 107.529H47.6803Z" fill="#E94F4D"/>
<path d="M69.8219 104.676C68.7819 104.294 67.0308 103.832 67.3064 103.574C67.7864 101.885 70.0086 100.659 71.6441 99.1387C72.8441 100.099 76.2753 100.223 74.7019 102.543C74.1597 103.05 73.5908 103.165 73.0041 102.881C73.3241 103.423 73.3508 103.814 72.9686 104.401C72.2397 105.112 70.9953 105.236 69.8308 104.685L69.8219 104.676ZM72.8975 101.148C72.613 101.148 72.3197 100.996 72.0264 100.854C71.7508 101.103 71.4841 101.361 71.2086 101.61C71.5286 102.152 72.3908 102.179 73.0753 101.894C73.4753 101.512 73.3064 101.334 72.8975 101.139V101.148ZM71.3241 102.828C70.9775 102.668 70.6841 102.525 70.3908 102.374C70.1153 102.623 69.8486 102.881 69.573 103.13C69.893 103.672 70.4619 103.556 71.493 103.556C71.8486 103.219 71.6797 102.988 71.3241 102.819V102.828Z" fill="white"/>
<path d="M76.2929 104.659C76.5418 104.588 76.5152 104.188 76.5152 104.188C73.9107 103.69 76.4263 107.236 72.0352 105.868C73.1196 104.854 74.4529 103.183 75.5818 102.961C77.2796 102.623 76.1952 103.645 77.9196 103.708C78.5063 103.992 78.2663 104.65 77.6263 105.281L76.2929 104.659Z" fill="white"/>
<path d="M78.995 104.348C80.8083 104.73 79.7328 105.761 78.6572 106.783C78.3905 107.041 78.9772 107.325 79.2794 107.477C79.4661 106.019 80.8617 105.539 82.6128 106.001C81.5372 107.032 80.4705 108.054 79.395 109.085C78.4705 108.25 75.0483 108.508 76.7105 106.65L79.0039 104.357L78.995 104.348Z" fill="white"/>
<path d="M82.4877 107.219C82.4284 107.113 82.301 107.009 82.1055 106.908C83.2077 106.277 84.5677 105.397 85.4921 106.233C85.4921 106.233 84.9588 106.748 84.6921 107.006C84.9855 107.148 85.2877 107.299 85.581 107.442C85.3143 107.699 85.0477 107.957 84.781 108.215C84.4877 108.073 84.1855 107.922 83.8921 107.779C82.7632 108.002 81.421 109.29 82.6121 109.868C82.8788 109.61 83.1455 109.353 83.4477 109.495C82.9143 110.01 82.6477 110.268 81.8121 110.633C82.0521 109.975 80.0521 110.162 80.8521 108.837L82.4966 107.21L82.4877 107.219Z" fill="white"/>
<path d="M84.9235 111.458C83.7946 111.493 82.3902 112.382 83.5013 110.115C83.7769 109.04 85.4924 110.747 86.6302 109.289C85.7769 109.662 84.6302 109.484 84.6302 109.076C85.1991 108.551 86.0435 108.178 86.9057 108.213C88.2035 108.462 88.3546 109.049 88.0435 109.751C87.7324 110.453 86.9502 111.28 86.3813 112.009C86.6657 111.751 87.2346 111.227 87.5369 111.778C87.2613 112.453 85.8124 112.533 85.2257 112.418C84.7457 112.16 84.7546 111.778 84.9324 111.449L84.9235 111.458ZM85.5635 110.667C84.9324 110.231 85.2613 110.773 84.6835 110.96C84.9235 111.084 85.2791 110.933 85.5635 110.667Z" fill="white"/>
<path d="M92.3292 109.397C90.0981 110.428 91.2003 113.308 86.5781 112.988C88.1692 111.432 89.5026 110.135 91.0492 108.748L92.3292 109.397Z" fill="white"/>
<path d="M90.9419 111.707L92.4086 112.445L91.3953 113.405L89.9375 112.667L90.9419 111.707Z" fill="white"/>
<path d="M66.3736 111.041C62.827 110.632 67.9114 108.872 66.9959 108.045C65.1914 106.783 67.1736 110.837 62.7559 109.441C63.8492 108.437 65.2181 107.174 66.3114 106.17C66.907 106.454 68.6136 106.134 67.2448 107.397C67.8136 107.29 68.6581 106.925 69.3247 108.41C69.8936 108.303 70.7559 108.339 71.0581 108.481C71.9736 109.699 70.347 111.228 68.667 111.565C66.6847 112.134 66.8803 111.85 67.4759 111.237C68.0625 110.623 69.0492 109.699 68.6403 108.988L66.3736 111.041Z" fill="white"/>
<path d="M74.1062 112.844C72.844 114.009 69.3684 113.84 69.8217 112.133C70.0351 111.075 70.8529 110.32 72.2573 109.849C74.2306 109.271 75.7773 110.8 74.9951 111.964C74.1862 112.729 72.7195 112.4 72.0706 111.307C71.5284 111.813 71.2884 112.471 71.884 112.764C72.4795 113.058 73.0484 112.951 73.2973 112.435L74.0973 112.844H74.1062ZM72.5684 111.04L73.5106 111.511C73.804 111.218 73.8751 110.933 73.5995 110.8C73.324 110.658 73.0129 110.72 72.5684 111.04Z" fill="white"/>
<path d="M76.3722 116.09C72.9588 115.619 78.0255 113.841 77.0922 112.996C75.5722 111.859 76.4344 115.779 73.7144 114.045C73.0833 113.352 75.9011 112.401 76.6833 111.236C76.7722 112.445 79.91 112.045 78.8522 113.823L76.3722 116.09Z" fill="white"/>
<path d="M79.6264 114.144C79.3064 112.784 80.9953 113.682 81.822 112.908C82.1153 113.468 82.4175 114.437 81.5909 115.21C81.3064 115.059 81.022 114.908 80.7375 114.757C80.1953 115.273 78.8175 115.744 79.1375 116.713C79.4487 117.273 79.9375 115.939 80.2398 116.499C79.9731 116.757 79.7064 117.015 79.4487 117.273C78.0887 117.735 77.4753 116.624 77.8931 115.744L79.6264 114.144Z" fill="white"/>
<path d="M84.3275 118.285C83.3675 119.067 82.1053 119.245 81.1542 118.747C80.0786 118.187 80.1764 117.129 81.1631 116.214C82.1497 115.289 83.6075 114.951 84.6653 115.502C85.7231 116.062 85.5542 117.12 84.5764 118.045L82.3986 116.916C81.8919 117.405 81.7586 117.885 82.1942 118.116C82.6297 118.338 83.1008 118.231 83.5453 117.885L84.3275 118.285ZM82.8786 116.507L83.7497 116.969C84.0431 116.676 84.1231 116.382 83.8653 116.249C83.6075 116.116 83.3142 116.178 82.8697 116.507H82.8786Z" fill="white"/>
<path d="M64.1506 114.837C63.955 114.659 63.635 114.117 63.3328 113.966C63.3861 114.766 64.8884 115.504 63.795 116.517C62.1328 117.628 59.4217 116.295 60.4972 114.891C61.3684 114.935 61.4484 116.135 62.3284 116.179C62.275 115.379 60.7728 114.642 61.8661 113.637C63.2617 112.775 65.8928 113.299 65.1728 114.997L64.1506 114.837Z" fill="white"/>
<path d="M65.6524 118.134C63.9369 118.525 62.3991 117.379 64.3635 116.41C65.5102 116.205 66.3991 116.65 67.5191 116.445C67.448 115.237 64.9857 117.112 65.4746 115.805C65.7502 115.557 66.0169 115.299 66.2924 115.05C67.7146 114.988 69.6969 115.228 69.208 116.543C68.968 117.201 67.0302 117.761 67.3769 118.721C67.6435 118.472 68.168 117.965 68.488 118.517C67.9902 119.423 66.8791 119.628 66.008 119.103C65.4835 118.845 65.4657 118.454 65.6435 118.143L65.6524 118.134ZM66.3102 117.379C66.9857 116.952 66.4257 117.05 66.1235 116.899C65.5546 117.005 64.9857 117.103 65.368 117.637C65.6346 117.77 66.0169 117.637 66.3102 117.37V117.379Z" fill="white"/>
<path d="M70.889 121.504C68.9956 120.641 71.529 119.566 71.7334 118.499C69.4134 118.517 69.0579 121.45 67.7601 119.637C67.7334 119.237 69.3867 118.117 70.1956 117.353C71.849 116.233 71.9734 117.841 73.4134 117.779C74.0179 118.081 73.7779 118.739 73.3067 119.273L70.8801 121.504H70.889Z" fill="white"/>
<path d="M76.6123 122.116C75.6079 123.085 74.2301 123.343 73.0923 122.747C71.9634 122.152 71.919 121.147 72.959 120.187C73.999 119.227 75.3767 118.969 76.4701 119.556C77.5634 120.143 77.599 121.147 76.6034 122.116H76.6123ZM75.2879 121.423C76.4079 120.729 75.2879 120.534 74.9945 120.374C74.4879 120.881 73.6967 121.236 74.0967 121.796C74.4345 121.974 74.8434 121.841 75.2879 121.423Z" fill="white"/>
</g>
<defs>
<clipPath id="clip0_1105_13807">
<rect width="160.149" height="160.14" fill="white" transform="translate(-0.150391 -0.140625)"/>
</clipPath>
</defs>
</svg>
